inDegrees=yes
name=ik_S53_A05_T01
DataType=double
version=3
OpenSimVersion=4.3-2021-08-27-4bc7ad9
endheader
time	pelvis_tilt	pelvis_list	pelvis_rotation	pelvis_tx	pelvis_ty	pelvis_tz	hip_flexion_r	hip_adduction_r	hip_rotation_r	knee_angle_r	knee_angle_r_beta	ankle_angle_r	subtalar_angle_r	mtp_angle_r	hip_flexion_l	hip_adduction_l	hip_rotation_l	knee_angle_l	knee_angle_l_beta	ankle_angle_l	subtalar_angle_l	mtp_angle_l	lumbar_extension	lumbar_bending	lumbar_rotation	arm_flex_r	arm_add_r	arm_rot_r	elbow_flex_r	pro_sup_r	wrist_flex_r	wrist_dev_r	arm_flex_l	arm_add_l	arm_rot_l	elbow_flex_l	pro_sup_l	wrist_flex_l	wrist_dev_l
7.799999999999922	-3.797982825616549	-1.448599435901282	18.66568026297485	0	0.9399999999999999	0	32.07320209677507	-12.16794672875247	-9.369491632759196	50.23051419771542	0.8766878577198921	0	0	0	32.07320209677507	-12.16794672875247	-9.369491632759196	50.23051419771542	0.8766878577198921	0	0	0	-2.712431680685566	-2.215675630763217	7.190659786886712	34.59015869745642	-8.566358497810054	0.2967617512982625	61.99242470309196	105.4254392866361	0	0	22.80792825432576	-4.168174298070753	8.024018068422645	32.47027121770553	118.9516776707699	0	0
7.819999999999921	-3.775895899146915	-1.494766158014728	18.85378637383249	0	0.9399999999999999	0	32.07734606632704	-12.16559201799931	-9.369930257735442	50.23151682364583	0.8767053568435437	0	0	0	32.07734606632704	-12.16559201799931	-9.369930257735442	50.23151682364583	0.8767053568435437	0	0	0	-2.708031019300001	-2.262970022236746	7.149525793144102	35.77235443277805	-8.193272193670527	0.4618140270988437	61.70920143756815	105.2266423098142	0	0	22.83092889968499	-4.215390378283262	8.245298507673027	32.45808743292215	118.8995201125989	0	0
7.839999999999921	-3.771241800502453	-1.506424306190082	18.98625470255624	0	0.9399999999999999	0	32.08169507425806	-12.16312234847544	-9.370390461284668	50.23256902302249	0.8767237211870538	0	0	0	32.08169507425806	-12.16312234847544	-9.370390461284668	50.23256902302249	0.8767237211870538	0	0	0	-2.709601975051651	-2.270828218862416	7.082487217600442	36.93840389455399	-7.814151575330263	0.6897325999245042	61.23883015516007	105.0452753956014	0	0	22.87003213510077	-4.234788109303538	8.360036986515015	32.42863536643153	118.8361248285984	0	0
7.85999999999992	-3.75373733593851	-1.54800737767852	19.25903896020133	0	0.9399999999999999	0	32.08582214312552	-12.16077950004913	-9.370827142989752	50.23356719913667	0.8767411426467608	0	0	0	32.08582214312552	-12.16077950004913	-9.370827142989752	50.23356719913667	0.8767411426467608	0	0	0	-2.706420469035918	-2.316285594474951	7.099652374816449	38.04202490842482	-7.479969244088076	0.7174388843555751	60.64379109916101	104.7431108964013	0	0	22.92506891449617	-4.24343664421654	8.709025691705071	32.392186356289	118.8069056567603	0	0
7.87999999999992	-3.75180408836689	-1.549359712808338	19.45451330932261	0	0.9399999999999999	0	32.09022135394366	-12.15828340110991	-9.371292533770372	50.23463101248217	0.8767597096922665	0	0	0	32.09022135394366	-12.15828340110991	-9.371292533770372	50.23463101248217	0.8767597096922665	0	0	0	-2.706525886387156	-2.315092454074896	7.042775179735903	39.14362420272437	-7.075507245650997	1.009586781911876	59.8556725213242	104.2904448183797	0	0	22.9429344457076	-4.213464727886261	8.873322864939849	32.37880306236341	118.7587709439956	0	0
7.89999999999992	-3.730599498062441	-1.54912387427759	19.57028051652092	0	0.9399999999999999	0	32.09347464076889	-12.15648032784467	-9.371631617918345	50.23543603518461	0.8767737599889773	0	0	0	32.09347464076889	-12.15648032784467	-9.371631617918345	50.23543603518461	0.8767737599889773	0	0	0	-2.686229253482017	-2.323150934009564	7.068158199284204	39.10891319482349	-7.139603121339064	0.850376620702607	59.9443001095544	103.7040518338697	0	0	22.91268765860777	-4.201042317479348	9.022752257008843	32.31550494632325	118.7361479796762	0	0
7.919999999999919	-3.740125422017761	-1.542154659583062	19.63896472660569	0	0.9399999999999999	0	32.09665209331156	-12.1547288972485	-9.371961649718781	50.23622652323254	0.8767875566081115	0	0	0	32.09665209331156	-12.1547288972485	-9.371961649718781	50.23622652323254	0.8767875566081115	0	0	0	-2.692964561925637	-2.314193979683308	7.086524217054364	39.10709726628178	-7.191147597384992	0.7924441004423085	59.94124991149845	102.896609576874	0	0	22.93247421170341	-4.16980247713482	9.142408864427619	32.31273947052322	118.6854090331346	0	0
